<svg width="153" height="19" viewBox="0 0 153 19" fill="none" xmlns="http://www.w3.org/2000/svg">
<path fill-rule="evenodd" clip-rule="evenodd" d="M8.28949 14.0412L4.0662 16.3441C3.70048 16.5435 3.26557 16.2345 3.33353 15.8236L4.14475 10.9179L0.69181 7.42699C0.404191 7.13621 0.568347 6.64191 0.972777 6.58096L5.7279 5.86431L7.838 1.4298C8.01892 1.04958 8.56006 1.04958 8.74099 1.4298L10.8511 5.86431L15.6062 6.58096C16.0106 6.64191 16.1748 7.13621 15.8872 7.42699L12.4342 10.9179L13.2455 15.8235C13.3134 16.2345 12.8785 16.5435 12.5128 16.3441L8.28949 14.0412Z" fill="#F59914"/>
<path fill-rule="evenodd" clip-rule="evenodd" d="M30.3951 14.0412L26.1718 16.3441C25.8061 16.5435 25.3712 16.2345 25.4391 15.8236L26.2503 10.9179L22.7974 7.42699C22.5098 7.13621 22.6739 6.64191 23.0784 6.58096L27.8335 5.86431L29.9436 1.4298C30.1245 1.04958 30.6657 1.04958 30.8466 1.4298L32.9567 5.86431L37.7118 6.58096C38.1162 6.64191 38.2804 7.13621 37.9928 7.42699L34.5398 10.9179L35.351 15.8235C35.419 16.2345 34.9841 16.5435 34.6184 16.3441L30.3951 14.0412Z" fill="#F59914"/>
<path fill-rule="evenodd" clip-rule="evenodd" d="M52.5006 14.5217L48.2773 16.8246C47.9115 17.024 47.4766 16.715 47.5446 16.304L48.3558 11.3984L44.9029 7.90746C44.6153 7.61668 44.7794 7.12238 45.1838 7.06143L49.939 6.34478L52.0491 1.91027C52.23 1.53005 52.7711 1.53005 52.952 1.91027L55.0621 6.34478L59.8173 7.06143C60.2217 7.12238 60.3859 7.61667 60.0982 7.90746L56.6453 11.3984L57.4565 16.304C57.5245 16.715 57.0896 17.024 56.7239 16.8246L52.5006 14.5217Z" fill="#F59914"/>
<path fill-rule="evenodd" clip-rule="evenodd" d="M74.6049 14.0412L70.3816 16.3441C70.0159 16.5435 69.581 16.2345 69.649 15.8236L70.4602 10.9179L67.0072 7.42699C66.7196 7.13621 66.8838 6.64191 67.2882 6.58096L72.0433 5.86431L74.1534 1.4298C74.3344 1.04958 74.8755 1.04958 75.0564 1.4298L77.1665 5.86431L81.9216 6.58096C82.3261 6.64191 82.4902 7.13621 82.2026 7.42699L78.7497 10.9179L79.5609 15.8235C79.6288 16.2345 79.1939 16.5435 78.8282 16.3441L74.6049 14.0412Z" fill="#F59914"/>
<path fill-rule="evenodd" clip-rule="evenodd" d="M96.7104 14.0412L92.4871 16.3441C92.1214 16.5435 91.6865 16.2345 91.7544 15.8235L92.5656 10.9179L89.1127 7.42699C88.8251 7.13621 88.9892 6.64191 89.3937 6.58096L94.1488 5.86431L96.2589 1.4298C96.4398 1.04958 96.981 1.04958 97.1619 1.4298L99.272 5.86431L104.027 6.58096C104.432 6.64191 104.596 7.13621 104.308 7.42699L100.855 10.9179L101.666 15.8235C101.734 16.2345 101.299 16.5435 100.934 16.3441L96.7104 14.0412Z" stroke="#9B9B9B"/>
<path d="M120.64 12.424V11.32L126.256 3.544H128V11.16H129.6V12.424H128V15H126.56V12.424H120.64ZM126.624 5.064L122.32 11.16H126.624V5.064ZM131.759 15.096C131.481 15.096 131.247 15 131.055 14.808C130.863 14.616 130.767 14.3813 130.767 14.104C130.767 13.8267 130.863 13.592 131.055 13.4C131.247 13.208 131.481 13.112 131.759 13.112C132.025 13.112 132.249 13.208 132.431 13.4C132.623 13.592 132.719 13.8267 132.719 14.104C132.719 14.3813 132.623 14.616 132.431 14.808C132.249 15 132.025 15.096 131.759 15.096ZM136.526 8.984C135.929 8.74933 135.47 8.408 135.15 7.96C134.83 7.512 134.67 6.968 134.67 6.328C134.67 5.752 134.814 5.23467 135.102 4.776C135.39 4.30667 135.817 3.93867 136.382 3.672C136.958 3.39467 137.651 3.256 138.462 3.256C139.273 3.256 139.961 3.39467 140.526 3.672C141.102 3.93867 141.534 4.30667 141.822 4.776C142.121 5.23467 142.27 5.752 142.27 6.328C142.27 6.94667 142.105 7.49067 141.774 7.96C141.443 8.41867 140.99 8.76 140.414 8.984C141.075 9.18667 141.598 9.544 141.982 10.056C142.377 10.5573 142.574 11.1653 142.574 11.88C142.574 12.5733 142.403 13.1813 142.062 13.704C141.721 14.216 141.235 14.616 140.606 14.904C139.987 15.1813 139.273 15.32 138.462 15.32C137.651 15.32 136.937 15.1813 136.318 14.904C135.71 14.616 135.235 14.216 134.894 13.704C134.553 13.1813 134.382 12.5733 134.382 11.88C134.382 11.1653 134.574 10.552 134.958 10.04C135.342 9.528 135.865 9.176 136.526 8.984ZM140.862 6.504C140.862 5.85333 140.649 5.352 140.222 5C139.795 4.648 139.209 4.472 138.462 4.472C137.726 4.472 137.145 4.648 136.718 5C136.291 5.352 136.078 5.85867 136.078 6.52C136.078 7.11733 136.297 7.59733 136.734 7.96C137.182 8.32267 137.758 8.504 138.462 8.504C139.177 8.504 139.753 8.32267 140.19 7.96C140.638 7.58667 140.862 7.10133 140.862 6.504ZM138.462 9.624C137.673 9.624 137.027 9.81067 136.526 10.184C136.025 10.5467 135.774 11.096 135.774 11.832C135.774 12.5147 136.014 13.064 136.494 13.48C136.985 13.896 137.641 14.104 138.462 14.104C139.283 14.104 139.934 13.896 140.414 13.48C140.894 13.064 141.134 12.5147 141.134 11.832C141.134 11.1173 140.889 10.5733 140.398 10.2C139.907 9.816 139.262 9.624 138.462 9.624ZM144.476 6.344C144.55 5.36267 144.929 4.59467 145.612 4.04C146.294 3.48533 147.18 3.208 148.268 3.208C148.993 3.208 149.617 3.34133 150.14 3.608C150.673 3.864 151.073 4.216 151.34 4.664C151.617 5.112 151.756 5.61867 151.756 6.184C151.756 6.84533 151.564 7.416 151.18 7.896C150.806 8.376 150.316 8.68533 149.708 8.824V8.904C150.401 9.07467 150.95 9.41067 151.356 9.912C151.761 10.4133 151.964 11.0693 151.964 11.88C151.964 12.488 151.825 13.0373 151.548 13.528C151.27 14.008 150.854 14.3867 150.3 14.664C149.745 14.9413 149.078 15.08 148.3 15.08C147.169 15.08 146.241 14.7867 145.516 14.2C144.79 13.6027 144.385 12.76 144.3 11.672H145.708C145.782 12.312 146.044 12.8347 146.492 13.24C146.94 13.6453 147.537 13.848 148.284 13.848C149.03 13.848 149.596 13.656 149.98 13.272C150.374 12.8773 150.572 12.3707 150.572 11.752C150.572 10.952 150.305 10.376 149.772 10.024C149.238 9.672 148.433 9.496 147.356 9.496H146.988V8.28H147.372C148.353 8.26933 149.094 8.10933 149.596 7.8C150.097 7.48 150.348 6.98933 150.348 6.328C150.348 5.76267 150.161 5.30933 149.788 4.968C149.425 4.62667 148.902 4.456 148.22 4.456C147.558 4.456 147.025 4.62667 146.62 4.968C146.214 5.30933 145.974 5.768 145.9 6.344H144.476Z" fill="black"/>
</svg>
